<?xml version="1.0" encoding="UTF-8" standalone="no"?>
<svg width="552" height="552" version="1.1" xmlns="http://www.w3.org/2000/svg" desc="Created with imagetracer.js version 1.2.6" ><path fill="rgb(12,13,14)" stroke="rgb(12,13,14)" stroke-width="1" opacity="1" d="M 263.5 78 L 288.5 78 L 289.5 79 L 306.5 80 L 332.5 86 L 354.5 94 Q 394.6 111.9 422 142.5 Q 446.6 168.4 461 204.5 L 468 226.5 L 472 245.5 L 473 262.5 L 474 263.5 L 474 289.5 L 473 290.5 L 473 300.5 L 472 301.5 L 471 313.5 L 467 330.5 L 455 362.5 Q 437 398.5 408.5 424 Q 382.9 447.9 347.5 462 L 329.5 468 L 306.5 473 L 289.5 474 L 288.5 475 L 262.5 475 L 261.5 474 L 251.5 474 L 250.5 473 L 233.5 471 L 198.5 460 Q 156.5 441.5 128 409.5 Q 103.1 382.9 89 345.5 L 83 326.5 L 79 307.5 L 78 289.5 L 77 288.5 L 77 263.5 L 78 262.5 L 78 253.5 L 82 230.5 L 93 197.5 Q 110.6 158.1 140.5 131 Q 164.1 108.1 196.5 94 L 229.5 83 L 252.5 79 L 262.5 79 L 263.5 78 Z M 263 83 L 262 84 L 253 84 L 252 85 L 235 87 L 198 99 Q 167 112 145 134 Q 116 160 99 197 L 89 224 L 85 241 L 84 253 L 83 254 L 83 263 L 82 264 L 82 290 L 83 291 L 84 307 L 89 330 L 94 345 Q 108 381 132 407 Q 159 437 200 455 L 216 461 L 235 466 L 252 469 L 262 469 L 263 470 L 300 469 L 317 466 L 339 460 Q 377 446 405 421 Q 436 393 454 353 L 461 334 L 465 318 L 468 301 L 468 291 L 469 290 L 468 253 L 460 217 L 454 201 L 444 181 Q 433 161 418 146 Q 392 116 354 99 Q 335 90 312 86 L 300 85 L 299 84 L 290 84 L 289 83 L 263 83 Z " /><path fill="rgb(12,13,14)" stroke="rgb(12,13,14)" stroke-width="1" opacity="1" d="M 288.5 91 L 292 92 L 293 94.5 L 293 139.5 L 292 142 L 288.5 143 L 286 142 L 283.5 138 L 274 136 L 270.5 131 L 267 130 L 262.5 124 Q 260.3 124.8 261 122.5 L 260 121.5 L 260 95 Q 264.6 95.6 266.5 92 L 268 94.5 L 268 119.5 L 270.5 123 L 274 124 L 276.5 128 L 281.5 129 L 284 128 L 285 125.5 L 285 94.5 L 286 92 L 288.5 91 Z " /><path fill="rgb(12,13,14)" stroke="rgb(12,13,14)" stroke-width="1" opacity="1" d="M 163.5 135 L 167 136 L 171.5 142 Q 173.8 141.3 173 143.5 L 176.5 148 L 180 149 L 184.5 155 Q 186.8 154.3 186 156.5 L 192 161 L 196.5 167 Q 198.8 166.3 198 168.5 L 199 171.5 L 198 174 L 194.5 175 L 192 174 L 189.5 170 L 186 172.5 Q 186.8 174.8 184.5 174 L 175 176 L 173 186 L 169 188.5 Q 168.5 192.5 171.5 193 Q 173.8 192.3 173 194.5 L 174 196.5 L 173 199 L 169.5 200 L 167 199 L 162.5 193 Q 160.3 193.8 161 191.5 L 156.5 186 Q 154.3 186.8 155 184.5 Q 152.7 180.4 148 180 L 143.5 174 Q 141.3 174.8 142 172.5 L 137.5 167 Q 135.3 167.8 136 165.5 L 135 163.5 L 136 161 L 139.5 160 L 142 161 L 146.5 167 Q 148.8 166.3 148 168.5 L 151.5 173 L 155 174 L 159.5 180 Q 161.8 179.3 161 181.5 L 165 183 L 166 180.5 Q 164.6 170.9 167 167 L 169.5 166 L 181.5 166 L 183 164.5 L 181.5 161 Q 179.3 161.8 180 159.5 Q 177.7 155.4 173 155 L 168.5 149 Q 166.3 149.8 167 147.5 L 162.5 142 Q 160.3 142.8 161 140.5 L 160 138.5 L 161 136 L 163.5 135 Z " /><path fill="rgb(12,13,14)" stroke="rgb(12,13,14)" stroke-width="1" opacity="1" d="M 407.5 142 Q 411.3 141.3 412 143.5 L 411 149 L 405 153.5 Q 405.8 155.8 403.5 155 L 399 161 L 394 164.5 L 393 168 Q 388.3 168.5 386 172.5 Q 386.8 174.8 384.5 174 L 380 180 L 374 184.5 Q 374.8 186.8 372.5 186 L 369.5 187 L 367 186 L 366 182.5 L 367 180 L 371 177.5 Q 371.8 175.3 369.5 176 L 361 174 L 360 170.5 L 361 168 L 363.5 167 L 381.5 167 L 384 166 Q 385.5 162.3 382.5 163 L 381.5 162 L 369.5 162 L 367 161 L 366 157.5 L 367 155 L 369.5 154 L 394.5 154 L 399 150.5 Q 398.3 148.3 400.5 149 L 405 143 L 407.5 142 Z " /><path fill="rgb(12,13,14)" stroke="rgb(12,13,14)" stroke-width="1" opacity="1" d="M 274.5 147 L 289.5 149 L 295.5 152 L 302 153 L 304.5 157 L 318 160 L 320.5 164 L 331 166 L 333.5 170 L 343 172 L 346.5 178 L 350 179 L 354.5 185 Q 356.8 184.3 356 186.5 L 362 191 L 365.5 197 L 369 198 L 373.5 204 Q 375.8 203.3 375 205.5 L 381 210 Q 382.8 212.4 382 218.5 L 384.5 222 L 388 223 Q 389.8 225.4 389 231.5 L 392.5 236 Q 394.8 235.3 394 237.5 L 396 247.5 L 399.5 252 Q 401.8 251.3 401 253.5 L 404 268.5 L 408 275.5 L 408 278.5 L 404 285.5 L 401 302 L 397 304.5 L 394 318 L 390 320.5 L 388 331 L 383 333.5 L 381 344 L 375 348.5 Q 375.8 350.8 373.5 350 Q 369.4 352.3 369 357 Q 364.3 357.5 362 361.5 Q 362.8 363.8 360.5 363 L 356 369 L 351 372.5 L 350 376 Q 345.3 376.5 343 380.5 Q 343.8 382.8 341.5 382 Q 340.3 384.3 335.5 383 L 331 386.5 Q 331.8 388.8 329.5 388 Q 328 390.5 322.5 389 L 319 391.5 L 318 395 L 315.5 396 Q 307.2 395.1 303 397 L 300.5 401 L 285.5 404 L 279.5 407 L 274.5 407 L 268.5 404 L 255.5 402 L 251 398.5 Q 251.8 395.9 248.5 397 L 247.5 396 Q 238.6 397.3 235 395 L 232.5 390 L 223 388 L 220.5 384 L 210 382 L 205.5 376 Q 203.3 376.8 204 374.5 L 200.5 370 L 197 369 L 192.5 363 Q 190.3 363.8 191 361.5 L 187.5 357 L 184 356 L 179.5 350 Q 177.3 350.8 178 348.5 L 172 344 Q 170.3 341.6 171 335.5 L 168.5 332 L 165 331 Q 163.3 328.6 164 322.5 L 160.5 318 Q 158.3 318.8 159 316.5 L 158 315.5 L 158 306.5 L 154.5 302 Q 152.3 302.8 153 300.5 L 150 285.5 L 147 279.5 L 147 274.5 L 149 269 Q 143.4 268 142 272.5 Q 142.8 274.8 140.5 274 L 136 280 Q 131.3 280.5 129 284.5 Q 129.8 286.8 127.5 286 L 125.5 287 L 123 286 L 118.5 280 Q 116.3 280.8 117 278.5 L 113.5 276 L 111 280 Q 106.3 280.5 104 284.5 Q 104.8 286.8 102.5 286 Q 98.4 288.3 98 293 L 94.5 294 L 92 293 L 91 288.5 L 92 286 L 98 281.5 Q 97.3 279.3 99.5 280 L 104 274 L 108 271.5 Q 108.8 269.3 106.5 270 L 105.5 269 L 94.5 269 L 92 268 L 91 263.5 L 92 261 L 94.5 260 L 145.5 260 L 151 261 L 153 252 L 157 249.5 Q 159.5 246 158 238.5 L 159 236 L 163 233.5 L 165 223 L 170 220.5 L 172 210 L 178 205.5 Q 177.3 203.3 179.5 204 L 185 199.5 Q 184.3 197.3 186.5 198 Q 190.5 195.7 191 191 L 197 186.5 Q 196.3 184.3 198.5 185 L 204 180.5 Q 203.3 178.3 205.5 179 Q 209.5 176.7 210 172 Q 212.4 170.3 218.5 171 L 223 167.5 Q 222.3 165.3 224.5 166 Q 225.7 163.8 230.5 165 L 235 161.5 Q 234.3 159.3 236.5 160 L 247.5 158 L 252 154.5 Q 251.3 152.3 253.5 153 L 274.5 147 Z M 274 162 L 267 164 L 261 169 L 257 170 L 255 174 L 248 179 L 254 199 L 254 204 L 250 205 L 245 200 L 237 179 L 237 176 L 235 173 L 226 174 L 223 179 Q 221 181 215 180 L 210 184 Q 211 186 209 185 L 204 191 L 201 192 L 197 198 L 191 203 Q 192 205 190 204 L 185 210 L 182 211 L 179 215 Q 181 220 178 222 Q 179 224 177 223 Q 171 225 173 235 L 176 237 L 203 247 L 207 256 L 207 293 L 204 306 L 201 308 L 176 317 L 173 320 L 174 329 L 178 331 Q 180 333 179 340 L 183 344 Q 185 343 184 346 L 190 350 Q 192 349 191 352 L 197 356 L 198 360 L 203 363 Q 205 362 204 365 L 210 369 L 211 373 L 215 375 Q 220 374 222 376 Q 224 375 223 378 Q 225 383 235 381 L 239 373 L 245 355 L 250 349 L 254 350 L 258 348 L 297 348 Q 298 351 304 349 L 309 357 L 317 379 L 320 381 L 329 380 L 331 376 L 341 374 L 343 369 L 347 368 L 350 363 L 356 359 Q 355 356 358 357 Q 362 355 362 350 Q 367 350 369 346 Q 368 343 371 344 L 374 340 Q 373 334 375 333 Q 374 330 377 331 Q 382 329 380 320 L 376 316 L 352 307 L 347 301 L 346 296 L 346 272 L 347 271 L 347 261 L 346 260 L 350 249 L 356 245 L 376 238 L 380 235 L 379 226 L 375 223 Q 373 221 374 215 L 371 210 Q 368 211 369 209 L 364 204 Q 361 205 362 203 L 356 198 Q 356 193 352 191 Q 349 192 350 190 L 345 185 Q 342 186 343 184 L 339 180 Q 333 181 331 179 L 330 176 Q 327 172 320 173 L 317 176 L 307 202 L 304 205 Q 300 206 299 203 L 306 179 Q 305 176 302 176 Q 298 176 299 172 L 288 164 L 281 162 L 274 162 Z M 179 248 Q 176 248 176 253 Q 176 255 172 255 L 169 261 L 165 265 L 162 274 L 162 281 L 164 288 L 169 294 L 170 298 L 174 299 L 179 306 L 200 300 L 202 298 L 202 257 L 199 254 L 179 248 Z M 375 248 L 355 254 L 351 259 L 351 297 L 352 299 L 357 301 L 376 306 Q 379 305 378 302 Q 379 298 383 299 L 385 294 L 389 290 L 392 281 L 392 274 L 390 267 L 385 261 L 384 257 L 381 255 Q 378 255 378 251 L 375 248 Z M 122 269 L 120 273 L 123 274 L 126 278 L 129 276 Q 128 273 131 274 L 133 270 Q 130 268 122 269 Z M 256 352 L 252 360 L 248 377 L 253 378 Q 256 379 255 384 L 261 385 L 265 389 L 274 392 L 281 392 L 288 390 L 294 385 L 298 384 L 299 381 L 305 377 L 305 372 L 299 354 L 298 352 L 256 352 Z " /><path fill="rgb(12,13,14)" stroke="rgb(12,13,14)" stroke-width="1" opacity="1" d="M 263.5 202 L 287.5 202 L 294 204.5 L 291.5 207 L 277.5 207 L 274.5 206 Q 273 208.5 267.5 207 L 262.5 206 L 259 207 L 260.5 203 L 263.5 202 Z " /><path fill="rgb(12,13,14)" stroke="rgb(12,13,14)" stroke-width="1" opacity="1" d="M 252.5 215 L 300.5 215 L 302 216.5 Q 300.5 220.9 303.5 220 L 312 222 L 315.5 228 L 319 229 L 323.5 235 Q 325.8 234.3 325 236.5 L 329.5 242 Q 331.8 241.3 331 243.5 L 333 253 Q 337.6 251.8 339 254.5 L 339 294.5 L 341 299.5 L 339.5 301 L 333 302 L 331 313 L 325 317.5 Q 325.8 319.8 323.5 319 L 319 325 L 313 328.5 L 312 332 L 302 334 Q 303 337.8 300.5 339 L 252.5 339 L 251 337.5 Q 252.5 333.1 249.5 334 L 241 332 Q 240.6 327.3 236.5 325 Q 234.3 325.8 235 323.5 Q 232.7 319.4 228 319 L 223.5 313 Q 221.3 313.8 222 311.5 L 220 302 L 213.5 301 L 212 299.5 L 214 294.5 L 214 257.5 L 215 255 L 220 252.5 L 222 242 L 227 238.5 L 228 235 Q 232.7 234.6 235 230.5 Q 234.3 228.3 236.5 229 Q 240.5 226.7 241 222 L 251 220 Q 250 216.2 252.5 215 Z M 259 223 L 257 224 L 254 229 Q 252 231 246 230 L 241 234 Q 242 236 240 235 Q 235 237 235 242 L 232 243 L 229 247 Q 231 252 228 254 Q 229 256 227 255 L 223 260 L 223 296 L 224 298 L 228 300 L 230 311 L 235 313 L 240 319 Q 242 318 241 321 L 246 324 Q 252 323 254 325 L 255 329 L 259 331 L 295 331 L 297 330 L 299 325 L 310 323 L 312 319 Q 317 319 319 315 Q 318 312 321 313 L 324 309 Q 323 303 325 302 Q 324 299 327 300 L 330 296 L 330 260 L 329 258 L 325 255 L 323 245 L 319 242 L 318 239 L 314 235 Q 311 236 312 234 L 308 230 Q 301 231 299 229 L 298 226 L 295 223 L 259 223 Z " /><path fill="rgb(12,13,14)" stroke="rgb(12,13,14)" stroke-width="1" opacity="1" d="M 275.5 254 L 280 255 Q 281.6 257.1 281 262.5 L 284.5 267 Q 286.8 266.3 286 268.5 L 288.5 272 L 299 274 L 300 277.5 L 299 280 Q 296.6 281.8 290.5 281 L 287 283.5 L 286 287 L 282 289.5 L 280 300 L 275.5 301 L 273 300 Q 271.3 297.6 272 291.5 L 268.5 287 Q 266.3 287.8 267 285.5 L 264.5 282 L 254 280 L 253 276.5 L 254 274 Q 256.4 272.3 262.5 273 L 266 270.5 L 267 267 L 271 264.5 L 273 255 L 275.5 254 Z M 276 269 L 273 273 Q 274 275 272 274 L 269 278 L 273 280 L 274 284 L 278 285 L 280 282 Q 279 279 282 280 L 284 277 L 280 274 L 279 271 L 276 269 Z " /><path fill="rgb(12,13,14)" stroke="rgb(12,13,14)" stroke-width="1" opacity="1" d="M 438.5 261 L 443 262 L 444 265.5 L 443 268 L 439 270.5 Q 438.3 272.8 440.5 272 L 441.5 273 L 458.5 273 L 461 274 L 462 277.5 L 461 280 L 458.5 281 L 434.5 281 L 431 283.5 L 430 287 L 424 291.5 Q 424.8 293.8 422.5 293 L 420.5 294 L 418 293 L 417 289.5 L 418 287 L 422 284.5 Q 423.1 281.2 420.5 282 Q 419 279.5 413.5 281 L 410 278.5 Q 409.3 274.8 411.5 274 L 413.5 273 L 425.5 273 L 430 269.5 Q 429.3 267.3 431.5 268 L 436 262 L 438.5 261 Z " /><path fill="rgb(12,13,14)" stroke="rgb(12,13,14)" stroke-width="1" opacity="1" d="M 175.5 354 L 179 355 L 180 359.5 L 179 362 L 173 366.5 Q 173.8 368.8 171.5 368 L 167 374 L 161 378.5 Q 161.8 380.8 159.5 380 L 155 383.5 L 154 387 L 148 391.5 Q 148.8 393.8 146.5 393 L 142 399 L 138.5 400 L 136 399 L 135 395.5 L 136 393 L 142 388.5 Q 141.3 386.3 143.5 387 Q 147.6 384.7 148 380 L 154 375.5 Q 153.3 373.3 155.5 374 L 161 369.5 Q 160.3 367.3 162.5 368 L 167 362 L 172 358.5 L 173 355 L 175.5 354 Z " /><path fill="rgb(12,13,14)" stroke="rgb(12,13,14)" stroke-width="1" opacity="1" d="M 369.5 367 L 396.5 367 L 399 368 L 400 370.5 L 400 388.5 L 401 391 L 403.5 392 Q 413.1 390.6 417 393 L 418 396.5 L 417 399 L 414.5 400 Q 404.9 398.6 401 401 L 400 403.5 L 400 415.5 L 399 418 L 394.5 419 L 392 418 L 391 415.5 L 391 403.5 L 390 401 L 387.5 400 L 369.5 400 L 367 399 L 366 396.5 L 366 370.5 L 367 368 L 369.5 367 Z M 379 375 L 376 376 L 375 379 Q 374 387 376 391 L 379 392 Q 387 393 390 391 L 391 389 Q 392 380 390 376 Q 387 374 379 375 Z " /><path fill="rgb(12,13,14)" stroke="rgb(12,13,14)" stroke-width="1" opacity="1" d="M 184.5 372 L 192 374 L 196.5 380 Q 198.8 379.3 198 381.5 L 201.5 386 L 205 387 L 206 390.5 L 205 393 Q 200.3 393.5 198 397.5 Q 198.8 399.8 196.5 399 L 192 405 L 187 408.5 L 186 412 Q 181.3 412.5 179 416.5 Q 179.8 418.8 177.5 418 L 173 424 L 169.5 425 L 167 424 L 162.5 418 Q 160.3 418.8 161 416.5 Q 158.7 412.4 154 412 Q 154.2 407.5 151 405.5 L 151 401.5 L 154.5 400 L 157.5 404 L 161 405 Q 161.5 409.7 165.5 412 Q 167.8 411.3 167 413.5 Q 168.8 417.8 170.5 415 L 173 413.5 Q 172.3 411.3 174.5 412 Q 178.9 410.4 178 403.5 L 174.5 399 Q 172.3 399.8 173 397.5 L 167 393 L 166 389.5 L 167 387 L 170.5 386 L 173 387 L 177.5 393 Q 179.8 392.3 179 394.5 Q 180.6 398.9 187.5 398 L 192 394.5 Q 191.3 392.3 193.5 393 L 196 389.5 L 192 387 L 188.5 381 L 185 379.5 Q 185.9 376.5 181.5 378 L 180 374.5 L 184.5 372 Z " /><path fill="rgb(12,13,14)" stroke="rgb(12,13,14)" stroke-width="1" opacity="1" d="M 257.5 411 L 261 412 L 265.5 418 Q 267.8 417.3 267 419.5 L 273 424 L 275.5 429 L 279 427.5 L 280 424 L 286 419.5 Q 285.3 417.3 287.5 418 L 292 412 L 295.5 411 L 298 412 L 299 414.5 L 299 459.5 L 298 462 L 294.5 463 L 292 462 L 287.5 456 Q 285.3 456.8 286 454.5 L 281.5 449 Q 279.3 449.8 280 447.5 Q 279.5 444.5 275.5 445 L 273 449 L 268 452.5 L 267 456 L 261 460.5 Q 261.8 462.8 259.5 462 L 257.5 463 L 255 462 L 254 459.5 L 254 414.5 L 255 412 L 257.5 411 Z M 263 427 L 262 430 L 262 445 L 264 446 L 267 445 Q 266 442 269 443 L 272 439 Q 273 432 269 431 Q 266 432 267 430 L 263 427 Z M 289 427 L 286 430 Q 287 432 285 431 L 281 436 L 282 441 L 286 443 L 288 446 L 291 445 L 291 430 L 290 429 Q 291 426 289 427 Z " /><path fill="rgb(0,0,0)" stroke="rgb(0,0,0)" stroke-width="1" opacity="0" d="M 0 0 L 552 0 L 552 552 L 0 552 L 0 0 Z M 264 78 L 263 79 L 253 79 L 230 83 L 197 94 Q 164 108 141 131 Q 111 158 93 198 L 82 231 L 78 254 L 78 263 L 77 264 L 77 289 L 78 290 L 79 308 L 83 327 L 89 346 Q 103 383 128 410 Q 156 442 199 460 L 234 471 L 251 473 L 252 474 L 262 474 L 263 475 L 289 475 L 290 474 L 307 473 L 330 468 L 348 462 Q 383 448 409 424 Q 437 399 455 363 L 467 331 L 471 314 L 472 302 L 473 301 L 473 291 L 474 290 L 474 264 L 473 263 L 472 246 L 468 227 L 461 205 Q 447 168 422 143 Q 395 112 355 94 L 333 86 L 307 80 L 290 79 L 289 78 L 264 78 Z " /><path fill="rgb(0,0,0)" stroke="rgb(0,0,0)" stroke-width="1" opacity="0" d="M 262.5 83 L 288.5 83 L 289.5 84 L 298.5 84 L 299.5 85 L 311.5 86 Q 334.5 90.5 353.5 99 Q 391.7 116.3 418 145.5 Q 432.7 161.3 444 180.5 L 454 200.5 L 460 216.5 L 468 252.5 L 469 289.5 L 468 290.5 L 468 300.5 L 465 317.5 L 461 333.5 L 454 352.5 Q 435.8 393.3 404.5 421 Q 377.2 446.2 338.5 460 L 316.5 466 L 299.5 469 L 262.5 470 L 261.5 469 L 251.5 469 L 234.5 466 L 215.5 461 L 199.5 455 Q 159.4 437.1 132 406.5 Q 107.8 380.7 94 344.5 L 89 329.5 L 84 306.5 L 83 290.5 L 82 289.5 L 82 263.5 L 83 262.5 L 83 253.5 L 84 252.5 L 85 240.5 L 89 223.5 L 99 196.5 Q 116.1 159.6 144.5 134 Q 167 112.5 197.5 99 L 234.5 87 L 251.5 85 L 252.5 84 L 261.5 84 L 262.5 83 Z M 289 91 L 286 92 L 285 95 L 285 126 L 284 128 L 282 129 L 277 128 L 274 124 L 271 123 L 268 120 L 268 95 L 267 92 Q 265 96 260 95 L 260 122 L 261 123 Q 260 125 263 124 L 267 130 L 271 131 L 274 136 L 284 138 L 286 142 L 289 143 L 292 142 L 293 140 L 293 95 L 292 92 L 289 91 Z M 164 135 L 161 136 L 160 139 L 161 141 Q 160 143 163 142 L 167 148 Q 166 150 169 149 L 173 155 Q 178 155 180 160 Q 179 162 182 161 L 183 165 L 182 166 L 170 166 L 167 167 Q 165 171 166 181 L 165 183 L 161 182 Q 162 179 160 180 L 155 174 L 152 173 L 148 169 Q 149 166 147 167 L 142 161 L 140 160 L 136 161 L 135 164 L 136 166 Q 135 168 138 167 L 142 173 Q 141 175 144 174 L 148 180 Q 153 180 155 185 Q 154 187 157 186 L 161 192 Q 160 194 163 193 L 167 199 L 170 200 L 173 199 L 174 197 L 173 195 Q 174 192 172 193 Q 168 193 169 189 L 173 186 L 175 176 L 185 174 Q 187 175 186 173 L 190 170 L 192 174 L 195 175 L 198 174 L 199 172 L 198 169 Q 199 166 197 167 L 192 161 L 186 157 Q 187 154 185 155 L 180 149 L 177 148 L 173 144 Q 174 141 172 142 L 167 136 L 164 135 Z M 408 142 L 405 143 L 401 149 Q 398 148 399 151 L 395 154 L 370 154 L 367 155 L 366 158 L 367 161 L 370 162 L 382 162 L 383 163 Q 385 162 384 166 L 382 167 L 364 167 L 361 168 L 360 171 L 361 174 L 370 176 Q 372 175 371 178 L 367 180 L 366 183 L 367 186 L 370 187 L 373 186 Q 375 187 374 185 L 380 180 L 385 174 Q 387 175 386 173 Q 388 168 393 168 L 394 165 L 399 161 L 404 155 Q 406 156 405 154 L 411 149 L 412 144 Q 411 141 408 142 Z M 275 147 L 254 153 Q 251 152 252 155 L 248 158 L 237 160 Q 234 159 235 162 L 231 165 Q 226 164 225 166 Q 222 165 223 168 L 219 171 Q 212 170 210 172 Q 210 177 206 179 Q 203 178 204 181 L 199 185 Q 196 184 197 187 L 191 191 Q 191 196 187 198 Q 184 197 185 200 L 180 204 Q 177 203 178 206 L 172 210 L 170 221 L 165 223 L 163 234 L 159 236 L 158 239 Q 160 246 157 250 L 153 252 L 151 261 L 146 260 L 95 260 L 92 261 L 91 264 L 92 268 L 95 269 L 106 269 L 107 270 Q 109 269 108 272 L 104 274 L 100 280 Q 97 279 98 282 L 92 286 L 91 289 L 92 293 L 95 294 L 98 293 Q 98 288 103 286 Q 105 287 104 285 Q 106 280 111 280 L 114 276 L 117 279 Q 116 281 119 280 L 123 286 L 126 287 L 128 286 Q 130 287 129 285 Q 131 280 136 280 L 141 274 Q 143 275 142 273 Q 143 268 149 269 L 147 275 L 147 280 L 150 286 L 153 301 Q 152 303 155 302 L 158 307 L 158 316 L 159 317 Q 158 319 161 318 L 164 323 Q 163 329 165 331 L 169 332 L 171 336 Q 170 342 172 344 L 178 349 Q 177 351 180 350 L 184 356 L 188 357 L 191 362 Q 190 364 193 363 L 197 369 L 201 370 L 204 375 Q 203 377 206 376 L 210 382 L 221 384 L 223 388 L 233 390 L 235 395 Q 239 397 248 396 L 249 397 Q 252 396 251 399 L 256 402 L 269 404 L 275 407 L 280 407 L 286 404 L 301 401 L 303 397 Q 307 395 316 396 L 318 395 L 319 392 L 323 389 Q 328 391 330 388 Q 332 389 331 387 L 336 383 Q 340 384 342 382 Q 344 383 343 381 Q 345 376 350 376 L 351 373 L 356 369 L 361 363 Q 363 364 362 362 Q 364 357 369 357 Q 369 352 374 350 Q 376 351 375 349 L 381 344 L 383 334 L 388 331 L 390 321 L 394 318 L 397 305 L 401 302 L 404 286 L 408 279 L 408 276 L 404 269 L 401 254 Q 402 251 400 252 L 396 248 L 394 238 Q 395 235 393 236 L 389 232 Q 390 225 388 223 L 385 222 L 382 219 Q 383 212 381 210 L 375 206 Q 376 203 374 204 L 369 198 L 366 197 L 362 191 L 356 187 Q 357 184 355 185 L 350 179 L 347 178 L 343 172 L 334 170 L 331 166 L 321 164 L 318 160 L 305 157 L 302 153 L 296 152 L 290 149 L 275 147 Z M 439 261 L 436 262 L 432 268 Q 429 267 430 270 L 426 273 L 414 273 L 412 274 Q 409 275 410 279 L 414 281 Q 419 280 421 282 Q 423 281 422 285 L 418 287 L 417 290 L 418 293 L 421 294 L 423 293 Q 425 294 424 292 L 430 287 L 431 284 L 435 281 L 459 281 L 461 280 L 462 278 L 461 274 L 459 273 L 442 273 L 441 272 Q 438 273 439 271 L 443 268 L 444 266 L 443 262 L 439 261 Z M 176 354 L 173 355 L 172 359 L 167 362 L 163 368 Q 160 367 161 370 L 156 374 Q 153 373 154 376 L 148 380 Q 148 385 144 387 Q 141 386 142 389 L 136 393 L 135 396 L 136 399 L 139 400 L 142 399 L 147 393 Q 149 394 148 392 L 154 387 L 155 384 L 160 380 Q 162 381 161 379 L 167 374 L 172 368 Q 174 369 173 367 L 179 362 L 180 360 L 179 355 L 176 354 Z M 370 367 L 367 368 L 366 371 L 366 397 L 367 399 L 370 400 L 388 400 L 390 401 L 391 404 L 391 416 L 392 418 L 395 419 L 399 418 L 400 416 L 400 404 L 401 401 Q 405 399 415 400 L 417 399 L 418 397 L 417 393 Q 413 391 404 392 L 401 391 L 400 389 L 400 371 L 399 368 L 397 367 L 370 367 Z M 185 372 L 180 375 L 182 378 Q 186 376 185 380 L 189 381 L 192 387 L 196 390 L 194 393 Q 191 392 192 395 L 188 398 Q 181 399 179 395 Q 180 392 178 393 L 173 387 L 171 386 L 167 387 L 166 390 L 167 393 L 173 398 Q 172 400 175 399 L 178 404 Q 179 410 175 412 Q 172 411 173 414 L 171 415 Q 169 418 167 414 Q 168 411 166 412 Q 161 410 161 405 L 158 404 L 155 400 L 151 402 L 151 406 Q 154 408 154 412 Q 159 412 161 417 Q 160 419 163 418 L 167 424 L 170 425 L 173 424 L 178 418 Q 180 419 179 417 Q 181 412 186 412 L 187 409 L 192 405 L 197 399 Q 199 400 198 398 Q 200 393 205 393 L 206 391 L 205 387 L 202 386 L 198 382 Q 199 379 197 380 L 192 374 L 185 372 Z M 258 411 L 255 412 L 254 415 L 254 460 L 255 462 L 258 463 L 260 462 Q 262 463 261 461 L 267 456 L 268 453 L 273 449 L 276 445 Q 279 444 280 448 Q 279 450 282 449 L 286 455 Q 285 457 288 456 L 292 462 L 295 463 L 298 462 L 299 460 L 299 415 L 298 412 L 296 411 L 292 412 L 288 418 Q 285 417 286 420 L 280 424 L 279 428 L 276 429 L 273 424 L 267 420 Q 268 417 266 418 L 261 412 L 258 411 Z " /><path fill="rgb(0,0,0)" stroke="rgb(0,0,0)" stroke-width="1" opacity="0" d="M 273.5 162 L 280.5 162 L 287.5 164 L 299 171.5 Q 298.5 175.5 301.5 176 Q 305.5 175.5 306 178.5 L 299 202.5 Q 299.5 205.5 303.5 205 L 307 201.5 L 317 175.5 L 319.5 173 Q 327.5 171.5 330 175.5 L 331 179 Q 333.1 180.6 338.5 180 L 343 183.5 Q 342.3 185.8 344.5 185 L 350 189.5 Q 349.3 191.8 351.5 191 Q 355.5 193.3 356 198 L 362 202.5 Q 361.3 204.8 363.5 204 L 369 208.5 Q 368.3 210.8 370.5 210 L 374 214.5 Q 373.3 220.6 375 223 L 379 225.5 L 380 234.5 L 375.5 238 L 355.5 245 L 350 248.5 L 346 259.5 L 347 260.5 L 347 270.5 L 346 271.5 L 346 295.5 L 347 300.5 L 351.5 307 L 375.5 316 L 380 319.5 Q 381.5 328.5 376.5 331 Q 374.3 330.3 375 332.5 Q 372.5 334 374 339.5 L 370.5 344 Q 368.3 343.3 369 345.5 Q 366.7 349.6 362 350 Q 361.6 354.7 357.5 357 Q 355.3 356.3 356 358.5 L 350 363 L 346.5 368 L 343 369 L 340.5 374 L 331 376 L 328.5 380 L 319.5 381 L 317 378.5 L 309 356.5 L 303.5 349 Q 298 350.5 296.5 348 L 257.5 348 L 253.5 350 L 249.5 349 L 245 354.5 L 239 372.5 L 234.5 381 Q 225.5 382.5 223 377.5 Q 223.8 375.3 221.5 376 Q 220 373.5 214.5 375 L 211 372.5 L 210 369 L 204 364.5 Q 204.8 362.3 202.5 363 L 198 359.5 L 197 356 L 191 351.5 Q 191.8 349.3 189.5 350 L 184 345.5 Q 184.8 343.3 182.5 344 L 179 339.5 Q 179.8 333.4 178 331 L 174 328.5 L 173 319.5 L 175.5 317 L 200.5 308 L 204 305.5 L 207 292.5 L 207 255.5 L 202.5 247 L 175.5 237 L 173 234.5 Q 171.5 225.5 176.5 223 Q 178.8 223.8 178 221.5 Q 180.5 220 179 214.5 L 181.5 211 L 185 210 L 189.5 204 Q 191.8 204.8 191 202.5 L 197 198 L 200.5 192 L 204 191 L 208.5 185 Q 210.8 185.8 210 183.5 L 214.5 180 Q 220.6 180.8 223 179 L 225.5 174 L 234.5 173 L 237 175.5 L 237 178.5 L 245 199.5 L 249.5 205 L 254 204 L 254 198.5 L 248 178.5 L 255 173.5 L 256.5 170 L 260.5 169 L 266.5 164 L 273.5 162 Z M 264 202 L 261 203 L 259 207 L 263 206 L 268 207 Q 273 209 275 206 L 278 207 L 292 207 L 294 205 L 288 202 L 264 202 Z M 253 215 Q 250 216 251 220 L 241 222 Q 241 227 237 229 Q 234 228 235 231 Q 233 235 228 235 L 227 239 L 222 242 L 220 253 L 215 255 L 214 258 L 214 295 L 212 300 L 214 301 L 220 302 L 222 312 Q 221 314 224 313 L 228 319 Q 233 319 235 324 Q 234 326 237 325 Q 241 327 241 332 L 250 334 Q 253 333 251 338 L 253 339 L 301 339 Q 303 338 302 334 L 312 332 L 313 329 L 319 325 L 324 319 Q 326 320 325 318 L 331 313 L 333 302 L 340 301 L 341 300 L 339 295 L 339 255 Q 338 252 333 253 L 331 244 Q 332 241 330 242 L 325 237 Q 326 234 324 235 L 319 229 L 316 228 L 312 222 L 304 220 Q 300 221 302 217 L 301 215 L 253 215 Z " /><path fill="rgb(0,0,0)" stroke="rgb(0,0,0)" stroke-width="1" opacity="0" d="M 258.5 223 L 294.5 223 L 298 225.5 L 299 229 Q 301.4 230.8 307.5 230 L 312 233.5 Q 311.3 235.8 313.5 235 L 318 238.5 L 319 242 L 323 244.5 L 325 255 L 329 257.5 L 330 259.5 L 330 295.5 L 326.5 300 Q 324.3 299.3 325 301.5 Q 322.5 303 324 308.5 L 320.5 313 Q 318.3 312.3 319 314.5 Q 316.7 318.5 312 319 L 309.5 323 L 299 325 L 296.5 330 L 294.5 331 L 258.5 331 L 255 328.5 L 254 325 Q 251.6 323.3 245.5 324 L 241 320.5 Q 241.8 318.3 239.5 319 L 235 313 L 230 310.5 L 228 300 L 224 297.5 L 223 295.5 L 223 259.5 L 226.5 255 Q 228.8 255.8 228 253.5 Q 230.5 252 229 246.5 L 231.5 243 L 235 242 Q 235.5 237.3 239.5 235 Q 241.8 235.8 241 233.5 L 245.5 230 Q 251.6 230.8 254 229 L 256.5 224 L 258.5 223 Z M 276 254 L 273 255 L 271 265 L 267 267 L 266 271 L 263 273 Q 256 272 254 274 L 253 277 L 254 280 L 265 282 L 267 286 Q 266 288 269 287 L 272 292 Q 271 298 273 300 L 276 301 L 280 300 L 282 290 L 286 287 L 287 284 L 291 281 Q 297 282 299 280 L 300 278 L 299 274 L 289 272 L 286 269 Q 287 266 285 267 L 281 263 Q 282 257 280 255 L 276 254 Z " /><path fill="rgb(0,0,0)" stroke="rgb(0,0,0)" stroke-width="1" opacity="0" d="M 178.5 248 L 198.5 254 L 202 256.5 L 202 297.5 L 199.5 300 L 178.5 306 L 173.5 299 L 170 298 L 169 293.5 L 164 287.5 L 162 280.5 L 162 273.5 L 165 264.5 L 169 260.5 L 171.5 255 Q 175.5 255.5 176 252.5 Q 175.5 248.5 178.5 248 Z " /><path fill="rgb(0,0,0)" stroke="rgb(0,0,0)" stroke-width="1" opacity="0" d="M 374.5 248 L 378 250.5 Q 377.5 254.5 380.5 255 L 384 256.5 L 385 260.5 L 390 266.5 L 392 273.5 L 392 280.5 L 389 289.5 L 385 293.5 L 382.5 299 Q 378.5 298.5 378 301.5 Q 378.5 305.5 375.5 306 L 356.5 301 L 352 298.5 L 351 296.5 L 351 258.5 L 354.5 254 L 374.5 248 Z " /><path fill="rgb(0,0,0)" stroke="rgb(0,0,0)" stroke-width="1" opacity="0" d="M 121.5 269 Q 129.7 267.9 133 270 L 130.5 274 Q 128.3 273.3 129 275.5 L 125.5 278 L 123 274 L 120 272.5 L 121.5 269 Z " /><path fill="rgb(0,0,0)" stroke="rgb(0,0,0)" stroke-width="1" opacity="0" d="M 275.5 269 L 279 270.5 L 280 274 L 284 276.5 L 281.5 280 Q 279.3 279.3 280 281.5 L 277.5 285 L 274 283.5 L 273 280 L 269 277.5 L 271.5 274 Q 273.8 274.8 273 272.5 L 275.5 269 Z " /><path fill="rgb(0,0,0)" stroke="rgb(0,0,0)" stroke-width="1" opacity="0" d="M 255.5 352 L 297.5 352 L 299 353.5 L 305 371.5 L 305 377 L 299 380.5 L 298 384 L 293.5 385 L 287.5 390 L 280.5 392 L 273.5 392 L 264.5 389 L 260.5 385 L 255 384 Q 256 379.3 252.5 378 L 248 377 L 252 359.5 L 255.5 352 Z " /><path fill="rgb(0,0,0)" stroke="rgb(0,0,0)" stroke-width="1" opacity="0" d="M 378.5 375 Q 386.7 373.9 390 376 Q 392.3 379.6 391 388.5 L 390 391 Q 386.7 393.1 378.5 392 L 376 391 Q 373.7 387.4 375 378.5 L 376 376 L 378.5 375 Z " /><path fill="rgb(0,0,0)" stroke="rgb(0,0,0)" stroke-width="1" opacity="0" d="M 263 427 L 267 429.5 Q 266.3 431.8 268.5 431 Q 272.7 432.3 272 438.5 L 268.5 443 Q 266.3 442.3 267 444.5 L 263.5 446 L 262 444.5 L 262 429.5 L 263 427 Z " /><path fill="rgb(0,0,0)" stroke="rgb(0,0,0)" stroke-width="1" opacity="0" d="M 288.5 427 Q 290.8 426.3 290 428.5 L 291 429.5 L 291 444.5 L 287.5 446 L 286 443 L 282 440.5 L 281 435.5 L 284.5 431 Q 286.8 431.8 286 429.5 L 288.5 427 Z " /></svg>