<?xml version="1.0" encoding="utf-8"?>
<!-- Generator: Adobe Illustrator 24.3.0, SVG Export Plug-In . SVG Version: 6.00 Build 0)  -->
<svg version="1.1" id="Layer_1" xmlns="http://www.w3.org/2000/svg" xmlns:xlink="http://www.w3.org/1999/xlink" x="0px" y="0px"
	 viewBox="0 0 104.4 69.1" style="enable-background:new 0 0 104.4 69.1;" xml:space="preserve">
<style type="text/css">
	.st0{opacity:0.1;}
	.st1{fill:none;stroke:#000000;stroke-width:0.8;stroke-miterlimit:10;}
	.st2{fill:url(#SVGID_1_);}
	.st3{fill:none;stroke:#F2F2F2;stroke-width:0.8;stroke-miterlimit:10;}
</style>
<g>
	<g class="st0">
		<path d="M17.2,12.4c3-15.2,23.9-10.7,35.2-11.3c17.2-1.7,13.8,20.4,1.5,20.4H35.4c-2.8-0.4-3.8,1.5-4.2,3.9h28l-2.6,8.8H11.7
			c-3-0.3-0.7-5.3-0.2-7.4c4.9-17.3,19.4-13.1,33.4-13.5c2,0.2,3.9-4.1,1-4.1H33.2c-2.3,0-2.8,1.8-3.2,3.1L17.2,12.4 M7.3,46
			c2.8-14.4,24.5-10.3,35.3-10.8c17-1.8,13.3,20.8,1.6,20.6H25.6c-2.7-0.3-3.8,1.7-4.2,3.9h28l-2.5,8.8H2.4c-3-0.3-0.8-5.4-0.3-7.4
			c5-18.1,18.4-13.8,33.2-14.2c2,0.2,3.8-4.1,1-4.1h-13c-2.3,0-2.8,1.8-3.2,3.2L7.3,46 M67.6,1.6h27.9c7.9,0,8.5,3.4,8.5,6.1
			c0,9.3-5.9,10.6-11.9,10.6v0.1c4,0.1,8.5,0.7,8.5,5.6c0,9.7-7.7,10.5-13.5,10.5H58.7L67.6,1.6z M74.8,27h5.9
			c3.2,0,3.8-1.3,3.8-3.1c0-0.9-0.7-1.7-2.5-1.7h-5.8L74.8,27z M78,15.6h6.3c3,0,3.4-1.4,3.4-2.8s-1.2-1.9-3.4-1.9h-5L78,15.6z
			 M63.4,46.7h-9.3L57,35.9h32.9L87,46.7h-9.2l-5.7,22H57.7L63.4,46.7z"/>
		<path class="st1" d="M17.2,12.4c3-15.2,23.9-10.7,35.2-11.3c17.2-1.7,13.8,20.4,1.5,20.4H35.4c-2.8-0.4-3.8,1.5-4.2,3.9h28
			l-2.6,8.8H11.7c-3-0.3-0.7-5.3-0.2-7.4c4.9-17.3,19.4-13.1,33.4-13.5c2,0.2,3.9-4.1,1-4.1H33.2c-2.3,0-2.8,1.8-3.2,3.1L17.2,12.4
			 M7.3,46c2.8-14.4,24.5-10.3,35.3-10.8c17-1.8,13.3,20.8,1.6,20.6H25.6c-2.7-0.3-3.8,1.7-4.2,3.9h28l-2.5,8.8H2.4
			c-3-0.3-0.8-5.4-0.3-7.4c5-18.1,18.4-13.8,33.2-14.2c2,0.2,3.8-4.1,1-4.1h-13c-2.3,0-2.8,1.8-3.2,3.2L7.3,46 M67.6,1.6h27.9
			c7.9,0,8.5,3.4,8.5,6.1c0,9.3-5.9,10.6-11.9,10.6v0.1c4,0.1,8.5,0.7,8.5,5.6c0,9.7-7.7,10.5-13.5,10.5H58.7L67.6,1.6z M74.8,27
			h5.9c3.2,0,3.8-1.3,3.8-3.1c0-0.9-0.7-1.7-2.5-1.7h-5.8L74.8,27z M78,15.6h6.3c3,0,3.4-1.4,3.4-2.8s-1.2-1.9-3.4-1.9h-5L78,15.6z
			 M63.4,46.7h-9.3L57,35.9h32.9L87,46.7h-9.2l-5.7,22H57.7L63.4,46.7z"/>
	</g>
	<g>
		<radialGradient id="SVGID_1_" cx="39.3775" cy="14.7165" r="64.5004" gradientUnits="userSpaceOnUse">
			<stop  offset="0.2792" style="stop-color:#FFFFFF"/>
			<stop  offset="0.386" style="stop-color:#E2E2E2;stop-opacity:0.9852"/>
			<stop  offset="0.6184" style="stop-color:#979797;stop-opacity:0.9529"/>
			<stop  offset="0.9569" style="stop-color:#212121;stop-opacity:0.906"/>
			<stop  offset="1" style="stop-color:#111111;stop-opacity:0.9"/>
		</radialGradient>
		<path class="st2" d="M16.7,11.9c3-15.2,23.9-10.7,35.2-11.3C69.1-1.1,65.7,21,53.4,21H34.9c-2.8-0.4-3.8,1.5-4.2,3.9h28l-2.6,8.8
			H11.2c-3-0.3-0.7-5.3-0.2-7.4C15.9,9,30.4,13.2,44.4,12.8c2,0.2,3.9-4.1,1-4.1H32.7c-2.3,0-2.8,1.8-3.2,3.1L16.7,11.9 M6.8,45.5
			c2.8-14.4,24.5-10.3,35.3-10.8c17-1.8,13.3,20.8,1.6,20.6H25.1c-2.7-0.3-3.8,1.7-4.2,3.9h28L46.4,68H1.9c-3-0.3-0.8-5.4-0.3-7.4
			c5-18.1,18.4-13.8,33.2-14.2c2,0.2,3.8-4.1,1-4.1h-13c-2.3,0-2.8,1.8-3.2,3.2L6.8,45.5 M67.1,1.1H95c7.9,0,8.5,3.4,8.5,6.1
			c0,9.3-5.9,10.6-11.9,10.6v0.1c4,0.1,8.5,0.7,8.5,5.6c0,9.7-7.7,10.5-13.5,10.5H58.2L67.1,1.1z M74.3,26.5h5.9
			c3.2,0,3.8-1.3,3.8-3.1c0-0.9-0.7-1.7-2.5-1.7h-5.8L74.3,26.5z M77.5,15.1h6.3c3,0,3.4-1.4,3.4-2.8s-1.2-1.9-3.4-1.9h-5L77.5,15.1
			z M62.9,46.2h-9.3l2.9-10.8h32.9l-2.9,10.8h-9.2l-5.7,22H57.2L62.9,46.2z"/>
		<path class="st3" d="M16.7,11.9c3-15.2,23.9-10.7,35.2-11.3C69.1-1.1,65.7,21,53.4,21H34.9c-2.8-0.4-3.8,1.5-4.2,3.9h28l-2.6,8.8
			H11.2c-3-0.3-0.7-5.3-0.2-7.4C15.9,9,30.4,13.2,44.4,12.8c2,0.2,3.9-4.1,1-4.1H32.7c-2.3,0-2.8,1.8-3.2,3.1L16.7,11.9 M6.8,45.5
			c2.8-14.4,24.5-10.3,35.3-10.8c17-1.8,13.3,20.8,1.6,20.6H25.1c-2.7-0.3-3.8,1.7-4.2,3.9h28L46.4,68H1.9c-3-0.3-0.8-5.4-0.3-7.4
			c5-18.1,18.4-13.8,33.2-14.2c2,0.2,3.8-4.1,1-4.1h-13c-2.3,0-2.8,1.8-3.2,3.2L6.8,45.5 M67.1,1.1H95c7.9,0,8.5,3.4,8.5,6.1
			c0,9.3-5.9,10.6-11.9,10.6v0.1c4,0.1,8.5,0.7,8.5,5.6c0,9.7-7.7,10.5-13.5,10.5H58.2L67.1,1.1z M74.3,26.5h5.9
			c3.2,0,3.8-1.3,3.8-3.1c0-0.9-0.7-1.7-2.5-1.7h-5.8L74.3,26.5z M77.5,15.1h6.3c3,0,3.4-1.4,3.4-2.8s-1.2-1.9-3.4-1.9h-5L77.5,15.1
			z M62.9,46.2h-9.3l2.9-10.8h32.9l-2.9,10.8h-9.2l-5.7,22H57.2L62.9,46.2z"/>
	</g>
</g>
</svg>
